<svg id="sw-js-blob-svg" viewBox="0 0 100 100" xmlns="http://www.w3.org/2000/svg" version="1.1">
    <defs> 
        <linearGradient id="sw-gradient" x1="0" x2="1" y1="1" y2="0">
            <stop id="stop1" stop-color="#c1282f" offset="0%"></stop>
            <stop id="stop2" stop-color="#c1282f" offset="100%"></stop>
        </linearGradient>
    </defs>
    <path fill="url(#sw-gradient)" d="M26.6,-32C33.5,-25.8,37.5,-16.6,39.4,-6.8C41.3,3,41.1,13.3,36.3,20.5C31.6,27.6,22.3,31.6,13.1,34.2C3.8,36.9,-5.3,38.2,-14.3,36.2C-23.4,34.3,-32.4,29.1,-38,21.1C-43.6,13.1,-45.8,2.3,-42.7,-6.2C-39.6,-14.8,-31.3,-21.1,-23.3,-27C-15.3,-32.9,-7.7,-38.5,1.1,-39.7C9.8,-41,19.6,-38.1,26.6,-32Z" width="100%" height="100%" transform="translate(50 50)" stroke-width="0" style="transition: all 0.3s ease 0s;"></path>
</svg>
