<svg width="30" height="30" viewBox="0 0 30 30" fill="none" xmlns="http://www.w3.org/2000/svg">
<g id="email (2) 1" clip-path="url(#clip0_92_150)">
<rect width="30" height="30" fill="url(#paint0_linear_92_150)"/>
<path id="Vector" fill-rule="evenodd" clip-rule="evenodd" d="M15 30C6.72896 30 0 23.271 0 15C0 6.72896 6.72896 0 15 0C23.271 0 30 6.72896 30 15C30 23.271 23.271 30 15 30ZM22.7788 20.2694C22.9637 20.2694 23.1142 20.1189 23.1142 19.9339V10.5169L15.4824 16.5774C15.3412 16.6896 15.1705 16.7457 14.9999 16.7457C14.8294 16.7457 14.6587 16.6896 14.5175 16.5774L6.8857 10.5169V19.9339C6.8857 20.1189 7.03623 20.2694 7.22115 20.2694H22.7788ZM21.6093 9.73061L15 14.9791L8.39068 9.73061H21.6093ZM24.666 10.0661V19.9341C24.666 20.9746 23.8194 21.8212 22.7788 21.8212H7.22115C6.18053 21.8212 5.33402 20.9746 5.33402 19.9341V10.0661C5.33402 9.02549 6.18059 8.17893 7.22115 8.17893H22.7788C23.8194 8.17887 24.666 9.02549 24.666 10.0661Z" fill="url(#paint1_linear_92_150)"/>
</g>
<defs>
<linearGradient id="paint0_linear_92_150" x1="15" y1="0" x2="15" y2="30" gradientUnits="userSpaceOnUse">
<stop stop-color="white"/>
<stop offset="1" stop-color="white" stop-opacity="0"/>
</linearGradient>
<linearGradient id="paint1_linear_92_150" x1="15" y1="0" x2="15" y2="30" gradientUnits="userSpaceOnUse">
<stop stop-color="#FBA81F"/>
<stop offset="1" stop-color="#C1282F"/>
</linearGradient>
<clipPath id="clip0_92_150">
<rect width="30" height="30" fill="white"/>
</clipPath>
</defs>
</svg>
