<svg width="50" height="50" viewBox="0 0 50 50" fill="none" xmlns="http://www.w3.org/2000/svg">
<g id="facebook (1) 1" clip-path="url(#clip0_137_37)">
<path id="Vector" fill-rule="evenodd" clip-rule="evenodd" d="M24.9199 0.757629C29.427 0.809062 33.4988 1.91679 37.1352 4.0808C40.7282 6.20162 43.7171 9.20876 45.816 12.8147C47.9668 16.4729 49.0679 20.5694 49.1191 25.104C48.9914 31.3084 47.0345 36.6076 43.2484 41.0015C39.4622 45.3955 34.6131 48.1138 29.5933 49.1559V31.7607H34.3391L35.4124 24.9247H28.2262V20.4474C28.1863 19.5192 28.4798 18.6074 29.0537 17.8767C29.6284 17.1442 30.6404 16.7591 32.0898 16.7216H36.4293V10.7335C36.367 10.7134 35.7762 10.6342 34.6568 10.4958C33.3873 10.3473 32.1107 10.268 30.8326 10.2582C27.9398 10.2715 25.652 11.0875 23.9692 12.7062C22.2863 14.3243 21.4267 16.6655 21.3903 19.7297V24.9247H15.9215V31.7607H21.3903V49.1559C15.2267 48.1138 10.3776 45.3955 6.59143 41.0015C2.80529 36.6076 0.848457 31.3084 0.720703 25.104C0.771816 20.5692 1.87285 16.4727 4.02379 12.8147C6.12269 9.20876 9.11157 6.20162 12.7046 4.0808C16.3409 1.9172 20.4127 0.809478 24.9199 0.757629Z" fill="url(#paint0_linear_137_37)"/>
</g>
<defs>
<linearGradient id="paint0_linear_137_37" x1="24.9199" y1="0.757629" x2="24.9199" y2="49.1559" gradientUnits="userSpaceOnUse">
<stop stop-color="#FBA81F"/>
<stop offset="1" stop-color="#C1282F"/>
</linearGradient>
<clipPath id="clip0_137_37">
<rect width="50" height="50" fill="white"/>
</clipPath>
</defs>
</svg>
