<svg width="30" height="30" viewBox="0 0 30 30" fill="none" xmlns="http://www.w3.org/2000/svg">
<g id="Group">
<path id="Vector" d="M25.605 4.39179C19.7463 -1.46517 10.2488 -1.46376 4.3918 4.39502C-1.46517 10.2538 -1.46377 19.7512 4.39502 25.6082C10.2538 31.4652 19.7513 31.4638 25.6082 25.605C28.4211 22.7913 30.0009 18.9753 30 14.9968C29.9992 11.0189 28.4183 7.20417 25.605 4.39179ZM22.717 20.8948C22.7163 20.8955 22.7157 20.8962 22.715 20.8968V20.8918L21.955 21.6468C20.9721 22.6421 19.5406 23.0516 18.18 22.7268C16.8092 22.3599 15.506 21.7758 14.32 20.9968C13.2181 20.2926 12.1969 19.4693 11.275 18.5418C10.4267 17.6998 9.66464 16.7752 8.99996 15.7818C8.27293 14.7129 7.69748 13.5486 7.28996 12.3218C6.82279 10.8806 7.20992 9.29925 8.28998 8.23683L9.17996 7.34685C9.4274 7.09829 9.82947 7.09741 10.078 7.34486C10.0786 7.3455 10.0793 7.34614 10.08 7.34685L12.8899 10.1568C13.1385 10.4043 13.1394 10.8063 12.8919 11.0548C12.8913 11.0555 12.8906 11.0561 12.8899 11.0568L11.2399 12.7068C10.7665 13.1751 10.707 13.9192 11.1 14.4568C11.6967 15.2759 12.3571 16.0465 13.075 16.7619C13.8753 17.5656 14.7454 18.2968 15.675 18.9469C16.2121 19.3215 16.9403 19.2584 17.4049 18.7969L18.9999 17.1769C19.2474 16.9283 19.6494 16.9274 19.8979 17.1749C19.8986 17.1755 19.8992 17.1762 19.8999 17.1769L22.7149 19.9969C22.9635 20.2443 22.9644 20.6463 22.717 20.8948Z" fill="url(#paint0_linear_92_145)"/>
</g>
<defs>
<linearGradient id="paint0_linear_92_145" x1="15" y1="0" x2="15" y2="30" gradientUnits="userSpaceOnUse">
<stop stop-color="#FBA81F"/>
<stop offset="1" stop-color="#C1282F"/>
</linearGradient>
</defs>
</svg>
