<svg width="50" height="50" viewBox="0 0 50 50" fill="none" xmlns="http://www.w3.org/2000/svg">
<g id="instagram (1) 1" clip-path="url(#clip0_137_39)">
<path id="Vector" d="M29.7852 25C29.7852 27.6428 27.6428 29.7852 25 29.7852C22.3572 29.7852 20.2148 27.6428 20.2148 25C20.2148 22.3572 22.3572 20.2148 25 20.2148C27.6428 20.2148 29.7852 22.3572 29.7852 25Z" fill="url(#paint0_linear_137_39)"/>
<path id="Vector_2" d="M36.1904 16.5336C35.9603 15.9103 35.5934 15.3461 35.1165 14.883C34.6534 14.4062 34.0896 14.0392 33.4659 13.8092C32.9601 13.6127 32.2002 13.3789 30.8006 13.3152C29.2865 13.2461 28.8326 13.2313 24.9996 13.2313C21.1662 13.2313 20.7122 13.2458 19.1986 13.3148C17.799 13.3789 17.0387 13.6127 16.5332 13.8092C15.9095 14.0392 15.3453 14.4062 14.8826 14.883C14.4058 15.3461 14.0388 15.9099 13.8084 16.5336C13.6119 17.0395 13.3781 17.7997 13.3144 19.1994C13.2453 20.713 13.2305 21.167 13.2305 25.0004C13.2305 28.8334 13.2453 29.2873 13.3144 30.8014C13.3781 32.201 13.6119 32.9609 13.8084 33.4667C14.0388 34.0904 14.4054 34.6542 14.8822 35.1173C15.3453 35.5942 15.9091 35.9611 16.5329 36.1912C17.0387 36.388 17.799 36.6218 19.1986 36.6855C20.7122 36.7546 21.1658 36.7691 24.9992 36.7691C28.833 36.7691 29.2869 36.7546 30.8002 36.6855C32.1998 36.6218 32.9601 36.388 33.4659 36.1912C34.7179 35.7082 35.7074 34.7187 36.1904 33.4667C36.3868 32.9609 36.6207 32.201 36.6848 30.8014C36.7538 29.2873 36.7683 28.8334 36.7683 25.0004C36.7683 21.167 36.7538 20.713 36.6848 19.1994C36.621 17.7997 36.3872 17.0395 36.1904 16.5336ZM24.9996 32.3715C20.9281 32.3715 17.6277 29.0714 17.6277 25C17.6277 20.9286 20.9281 17.6285 24.9996 17.6285C29.0706 17.6285 32.3711 20.9286 32.3711 25C32.3711 29.0714 29.0706 32.3715 24.9996 32.3715ZM32.6625 19.0597C31.7112 19.0597 30.9398 18.2884 30.9398 17.337C30.9398 16.3856 31.7112 15.6143 32.6625 15.6143C33.6139 15.6143 34.3853 16.3856 34.3853 17.337C34.3849 18.2884 33.6139 19.0597 32.6625 19.0597Z" fill="url(#paint1_linear_137_39)"/>
<path id="Vector_3" d="M25 0C11.195 0 0 11.195 0 25C0 38.805 11.195 50 25 50C38.805 50 50 38.805 50 25C50 11.195 38.805 0 25 0ZM39.2689 30.9185C39.1994 32.4467 38.9565 33.49 38.6017 34.4032C37.8559 36.3316 36.3316 37.8559 34.4032 38.6017C33.4904 38.9565 32.4467 39.1991 30.9189 39.2689C29.388 39.3387 28.899 39.3555 25.0004 39.3555C21.1014 39.3555 20.6127 39.3387 19.0815 39.2689C17.5537 39.1991 16.51 38.9565 15.5972 38.6017C14.6389 38.2412 13.7714 37.6762 13.0543 36.9457C12.3241 36.2289 11.7592 35.3611 11.3987 34.4032C11.0439 33.4904 10.8009 32.4467 10.7315 30.9189C10.6609 29.3877 10.6445 28.8986 10.6445 25C10.6445 21.1014 10.6609 20.6123 10.7311 19.0815C10.8006 17.5533 11.0432 16.51 11.3979 15.5968C11.7584 14.6389 12.3238 13.7711 13.0543 13.0543C13.7711 12.3238 14.6389 11.7588 15.5968 11.3983C16.51 11.0435 17.5533 10.8009 19.0815 10.7311C20.6123 10.6613 21.1014 10.6445 25 10.6445C28.8986 10.6445 29.3877 10.6613 30.9185 10.7315C32.4467 10.8009 33.49 11.0435 34.4032 11.3979C35.3611 11.7584 36.2289 12.3238 36.9461 13.0543C37.6762 13.7714 38.2416 14.6389 38.6017 15.5968C38.9568 16.51 39.1994 17.5533 39.2693 19.0815C39.3391 20.6123 39.3555 21.1014 39.3555 25C39.3555 28.8986 39.3391 29.3877 39.2689 30.9185Z" fill="url(#paint2_linear_137_39)"/>
</g>
<defs>
<linearGradient id="paint0_linear_137_39" x1="25" y1="20.2148" x2="25" y2="29.7852" gradientUnits="userSpaceOnUse">
<stop stop-color="#FBA81F"/>
<stop offset="1" stop-color="#C1282F"/>
</linearGradient>
<linearGradient id="paint1_linear_137_39" x1="24.9994" y1="13.2313" x2="24.9994" y2="36.7691" gradientUnits="userSpaceOnUse">
<stop stop-color="#FBA81F"/>
<stop offset="1" stop-color="#C1282F"/>
</linearGradient>
<linearGradient id="paint2_linear_137_39" x1="25" y1="0" x2="25" y2="50" gradientUnits="userSpaceOnUse">
<stop stop-color="#FBA81F"/>
<stop offset="1" stop-color="#C1282F"/>
</linearGradient>
<clipPath id="clip0_137_39">
<rect width="50" height="50" fill="white"/>
</clipPath>
</defs>
</svg>
