<svg width="30" height="30" viewBox="0 0 30 30" fill="none" xmlns="http://www.w3.org/2000/svg">
<g id="&#229;&#155;&#190;&#229;&#177;&#130;_x0020_1">
<path id="Vector" fill-rule="evenodd" clip-rule="evenodd" d="M15 30C6.71705 30 0 23.283 0 15C0 6.71705 6.71705 0 15 0C23.283 0 30 6.71705 30 15C30 23.283 23.283 30 15 30ZM15 5.24339C19.1034 5.24339 22.4297 8.56972 22.4297 12.6731C22.4297 16.7764 15 24.7565 15 24.7565C15 24.7565 7.57028 16.7764 7.57028 12.6731C7.57028 8.56972 10.8966 5.24339 15 5.24339ZM15 9.72118C16.5557 9.72118 17.8174 10.9828 17.8174 12.5387C17.8174 14.0944 16.5557 15.3561 15 15.3561C13.4443 15.3561 12.1826 14.0944 12.1826 12.5387C12.1826 10.9828 13.4443 9.72118 15 9.72118Z" fill="url(#paint0_linear_92_176)"/>
</g>
<defs>
<linearGradient id="paint0_linear_92_176" x1="15" y1="0" x2="15" y2="30" gradientUnits="userSpaceOnUse">
<stop stop-color="#F9B233"/>
<stop offset="1" stop-color="#C1282F"/>
</linearGradient>
</defs>
</svg>
