<svg width="50" height="50" viewBox="0 0 50 50" fill="none" xmlns="http://www.w3.org/2000/svg">
<g id="twitter (2) 1" clip-path="url(#clip0_137_43)">
<g id="Group">
<path id="Vector" d="M25 0C11.1934 0 0 11.1934 0 25C0 38.8066 11.1934 50 25 50C38.8066 50 50 38.8066 50 25C50 11.1934 38.8066 0 25 0Z" fill="url(#paint0_linear_137_43)"/>
<path id="Vector_2" d="M27.7351 22.7375L38.4373 10.2971H35.9012L26.6085 21.099L19.1864 10.2971H10.626L21.8496 26.6314L10.626 39.6772H13.1622L22.9756 28.27L30.8138 39.6772H39.3743L27.7345 22.7375H27.7351ZM14.076 12.2064H17.9715L35.9024 37.8547H32.0069L14.076 12.2064Z" fill="white"/>
</g>
</g>
<defs>
<linearGradient id="paint0_linear_137_43" x1="25" y1="0" x2="25" y2="50" gradientUnits="userSpaceOnUse">
<stop stop-color="#FBA81F"/>
<stop offset="1" stop-color="#C1282F"/>
</linearGradient>
<clipPath id="clip0_137_43">
<rect width="50" height="50" fill="white"/>
</clipPath>
</defs>
</svg>
